inDegrees=no
num_controls=7
num_derivatives=13
num_iterations=143
num_multipliers=7
num_parameters=0
num_slacks=7
num_states=26
objective=5.511904
objective_accelerations=0.707774
objective_balance=0.051688
objective_effort=0.282610
objective_height=4.423368
objective_ligament=0.046464
solver_duration=1629.831007
status=Solve_Succeeded
success=true
DataType=double
version=3
OpenSimVersion=4.4-2022-07-23-0e9fedc
endheader
time	/jointset/ground_pelvis/pelvis_tilt/value	/jointset/ground_pelvis/pelvis_tx/value	/jointset/ground_pelvis/pelvis_ty/value	/jointset/hip_l/hip_flexion_l/value	/jointset/hip_l/hip_adduction_l/value	/jointset/hip_l/hip_rotation_l/value	/jointset/back/lumbar_extension/value	/jointset/patellofemoral_l/patellar_flexion_l/value	/jointset/knee_l/knee_flexion_l/value	/jointset/knee_l/knee_adduction_l/value	/jointset/knee_l/knee_rotation_l/value	/jointset/ankle_l/ankle_angle_l/value	/jointset/subtalar_l/subtalar_angle_l/value	/jointset/ground_pelvis/pelvis_tilt/speed	/jointset/ground_pelvis/pelvis_tx/speed	/jointset/ground_pelvis/pelvis_ty/speed	/jointset/hip_l/hip_flexion_l/speed	/jointset/hip_l/hip_adduction_l/speed	/jointset/hip_l/hip_rotation_l/speed	/jointset/back/lumbar_extension/speed	/jointset/patellofemoral_l/patellar_flexion_l/speed	/jointset/knee_l/knee_flexion_l/speed	/jointset/knee_l/knee_adduction_l/speed	/jointset/knee_l/knee_rotation_l/speed	/jointset/ankle_l/ankle_angle_l/speed	/jointset/subtalar_l/subtalar_angle_l/speed	/forceset/tau_hip_flexion_l	/forceset/tau_hip_adduction_l	/forceset/tau_hip_rotation_l	/forceset/tau_knee_flexion_l	/forceset/tau_ankle_angle_l	/forceset/tau_subtalar_angle_l	/forceset/tau_lumbar_extension	lambda_cid13_p0	lambda_cid13_p1	lambda_cid13_p2	lambda_cid13_p3	lambda_cid13_p4	lambda_cid13_p5	lambda_cid14_p0	/jointset/ground_pelvis/pelvis_tilt/accel	/jointset/ground_pelvis/pelvis_tx/accel	/jointset/ground_pelvis/pelvis_ty/accel	/jointset/hip_l/hip_flexion_l/accel	/jointset/hip_l/hip_adduction_l/accel	/jointset/hip_l/hip_rotation_l/accel	/jointset/back/lumbar_extension/accel	/jointset/patellofemoral_l/patellar_flexion_l/accel	/jointset/knee_l/knee_flexion_l/accel	/jointset/knee_l/knee_adduction_l/accel	/jointset/knee_l/knee_rotation_l/accel	/jointset/ankle_l/ankle_angle_l/accel	/jointset/subtalar_l/subtalar_angle_l/accel	gamma_cid13_p0	gamma_cid13_p1	gamma_cid13_p2	gamma_cid13_p3	gamma_cid13_p4	gamma_cid13_p5	gamma_cid14_p0
1.5	-0.3882851981981418	-0.02639250439982376	0.7628693475579735	1.116856143857564	-0.4365202918733706	-0.2155239628567365	-0.2257062533854573	0.783264669818883	0.7832646698189506	-0.1431685543889439	-0.1464220724471986	0.1126081433969925	-0.0297059457702543	0.7323247786867896	0.2864424306042282	0.5247405806637477	-2.489577251693449	0.2123121964551251	-0.7224195819898349	0.3139592426772235	-1.956013186921802	-1.956013186921937	-0.09748649595480681	0.1306087340760791	-0.3561957098790421	0.06417803609704821	-0.1855656793509579	0.03292773799848649	-0.005842346632697971	-0.1890197519610657	0.03542555372739357	0.04417189533511345	0.1754486997763144	-20.87570043037258	-18.50842435004839	6.018427660700186	-6.361381502526473	-520.6544718326028	-60.50520661360704	-26.00748920510853	0.6937711578274562	0.690627667339375	-0.4954264939154237	-1.313974100155113	0.7193361568843929	-0.1394994539809479	1.478912546231786	-1.282889696225612	-1.282889696225606	0.1075984683014265	0.2236506152183621	-0.4573808096237612	0.5381333099073904	3.554583503821587e-07	1.165513393026746e-06	-1.321235579107123e-06	1.627877123164668e-07	5.079211745567158e-07	2.420394324258447e-08	3.688012786030767e-07
1.51	-0.3809273931885808	-0.02349386256830646	0.7680909465978166	1.091896454064934	-0.4343626771016724	-0.2227545267524314	-0.2224940852408275	0.7636426643078579	0.7636426643078182	-0.1441406324586994	-0.1451065301029646	0.1090234149026269	-0.02903901782164941	0.7391256242351538	0.2932445762941034	0.5194677794490927	-2.502004304151701	0.2191911462798207	-0.7235948788576567	0.3284375294792315	-1.968116471714858	-1.968116471714911	-0.09692270591461709	0.1324861320719933	-0.3606918432215317	0.06920842945629722	-0.1792431884875472	0.03194020687774835	-0.005518793637393779	-0.1864360045916547	0.03523990135573914	0.04337156471922782	0.1703545177327244	-20.72052075025463	-18.20444376520404	5.988733889457903	-6.115695448478743	-516.6697252164126	-60.77067871199746	-26.88635483686965	0.6566653441305513	0.6688424836053326	-0.5598164315737116	-1.153588652589947	0.6692127224983072	-0.09146850921233822	1.426758231744562	-1.133405944094889	-1.133405944082729	0.03191270993621011	0.1674568188003386	-0.4369677890601848	0.4855578164029059	3.583842122593334e-07	1.267386987411905e-06	-1.270979302111724e-06	1.819840039461689e-07	5.28043904709536e-07	7.350906517361946e-08	3.716010629046499e-07
1.52	-0.3735048949053705	-0.02052843238713168	0.7732564957262466	1.066823190180944	-0.4321368651662782	-0.2299938283580156	-0.2191382399312634	0.7439077543342398	0.7439077543341119	-0.145106843940401	-0.1437726792934065	0.1053954774363365	-0.02832177284595809	0.7452634334150963	0.2998001005357244	0.5135305983811489	-2.512292069967144	0.2259516291939623	-0.7241671239666631	0.3426946756636052	-1.978594079437884	-1.978594079437856	-0.09631317835209138	0.134270427148803	-0.3648375042639651	0.07424144151431444	-0.1729206976241182	0.03095267575700047	-0.005195240641827893	-0.1838522572222651	0.03505424898407931	0.04257123410332461	0.1652603356891581	-20.56839404262771	-17.90293711495075	5.962871817327608	-5.899157407696642	-512.7459970455991	-61.0812850468327	-27.76604873135463	0.561163884143185	0.641303377688533	-0.6283024645731758	-0.8861167715935901	0.6956427747735743	-0.01888910221788001	1.434684422704957	-0.9577542822198732	-0.9577542822198839	0.1167459727686377	0.205030031397513	-0.3872863496125225	0.5386570496610272	3.599488938035992e-07	1.375911338643008e-06	-1.214398161995998e-06	2.019548440963663e-07	5.488784486727299e-07	1.216474251411519e-07	3.73960997389814e-07
1.53	-0.3660242907145107	-0.01749870435168243	0.778359439558286	1.041657555319714	-0.4298441625000878	-0.2372361698131078	-0.2156411239182934	0.7240762287324046	0.7240762287323921	-0.1460667528592433	-0.1424217051019138	0.1017279080850447	-0.02755427036570876	0.7507432475885965	0.3061011747875858	0.5069533517617282	-2.520476059303479	0.2325592257750869	-0.7241938556938535	0.3566813352604533	-1.987424543301659	-1.98742454330169	-0.09567291000889147	0.1359134583041181	-0.3686048572760745	0.07925614256891425	-0.1665214544952801	0.02991942637011358	-0.004904125744220599	-0.1815563137071872	0.03529490598073901	0.04145166040481386	0.1600914791638921	-20.29773497310622	-17.47807578800641	5.911104343697962	-5.709347658135099	-508.9784240190315	-61.13486837745084	-28.6470908561617	0.524270624165256	0.6179064600326246	-0.6880417947800238	-0.7307014390496112	0.6387956542948259	0.02186777892092524	1.373577977769464	-0.802793168069325	-0.8027931680782909	0.03724323413653091	0.1420272490414465	-0.3606841130259092	0.4823216940370613	3.600673212441493e-07	1.491502119022927e-06	-1.151096854814924e-06	2.2274864204959e-07	5.704692948094457e-07	1.685461005224629e-07	3.758535914450435e-07
1.54	-0.3584923122938664	-0.01440728617149518	0.7833934897173008	1.016420848280232	-0.4274862883571834	-0.244475491988091	-0.2120055570594391	0.7041649783460333	0.7041649783461021	-0.1470203439009413	-0.1410546830804872	0.09802482033643024	-0.02673673186277773	0.7555382793705422	0.3121381294833253	0.4997518637761839	-2.526506505615683	0.238985924536721	-0.7235632679454128	0.3703848448410859	-1.994539036349953	-1.994539036350043	-0.09504960290405121	0.1374799931171434	-0.3719411837288126	0.08424864605061795	-0.160122211366583	0.02888617698323117	-0.004613010847198079	-0.1792603701920498	0.03553556297742325	0.04033208670632959	0.1549226226384786	-20.02851454799548	-17.05647291195802	5.863866893120997	-5.553915958001855	-505.2438657880829	-61.23080963442329	-29.53063159819037	0.4242074058324621	0.5884794664641275	-0.7531507377979	-0.4554081667675583	0.6594632108754838	0.1125747929083876	1.378054419461926	-0.6145601191237248	-0.614560119123696	0.1133537250967183	0.1897307629395761	-0.3010810377382852	0.5342175350817908	3.417120622663474e-07	1.6172448387049e-06	-1.01177194533584e-06	2.615316161411092e-07	5.561876718976051e-07	2.081050227860498e-07	3.69073122904538e-07
1.55	-0.35091585568012	-0.011256934221737	0.7883524542361212	0.9911348056086439	-0.4250650119862444	-0.2517059831629246	-0.2082345735132528	0.6841914062009355	0.6841914062009413	-0.1479671591832888	-0.1396728930763462	0.09429058197198496	-0.025869276147669	0.7596334261796671	0.3178748240888042	0.4919440609282155	-2.530330651932434	0.2452344385907325	-0.7224302398536431	0.3837398709894822	-1.999885097995773	-1.999885097995728	-0.09431792231613412	0.1388652157526652	-0.3748411688065073	0.08923108934257516	-0.1537198989311732	0.02756361728100457	-0.004341816362122164	-0.1769799494191801	0.03551142635681377	0.03924929636552849	0.1496971956542429	-19.8565250836287	-16.6348705895103	5.817828081401701	-5.228303891253121	-501.6541556801386	-61.40133647451747	-30.41371158362285	0.3842125391615284	0.5577198210162022	-0.8090479815263834	-0.2902195288483099	0.6021429822284524	0.1296779427467673	1.303427701549746	-0.4511535829956861	-0.4511535829754956	0.05269126745487154	0.1108086543449656	-0.2745999737962773	0.4783312162665394	3.020719037195757e-07	1.7546843580175e-06	-7.848546245134027e-07	3.210412496963155e-07	5.005747259515599e-07	2.392072729792157e-07	3.522997778950341e-07
1.56	-0.3433020387541332	-0.00805092425323888	0.7932304501418161	0.9658216611409493	-0.4225823309788493	-0.2589219418317525	-0.2043321995077763	0.6641730685602751	0.6641730685601661	-0.1489067344515307	-0.1382776727176256	0.09052931521056257	-0.02495238130163774	0.7630103418171265	0.3232697332313137	0.4835581411510786	-2.531926864837982	0.2512668518273136	-0.7206567667444419	0.3966629366987234	-2.003492135468972	-2.003492135468792	-0.09360160005558367	0.1401660640076366	-0.3773468631246488	0.09413647223508627	-0.1473175864957433	0.02624105757879553	-0.004070621877815764	-0.1746995286462217	0.03548728973622112	0.03816650602476699	0.1444717686700146	-19.69147457339893	-16.21503009118234	5.775471034163506	-4.911033652479804	-498.1715759770765	-61.61899018584264	-31.28180111069169	0.2805611714994651	0.5201223738701942	-0.8687741236316321	-0.009821484526985429	0.6162430473894425	0.2406637963946569	1.291662331630937	-0.2667552845994804	-0.2667552845994776	0.1102820596233987	0.1728558868294999	-0.2222228858276689	0.5188054551925534	2.666937890142739e-07	1.875941443801582e-06	-5.890173746335683e-07	3.694289108325433e-07	4.55788787540184e-07	2.652136154228724e-07	3.368207041174056e-07
